<?xml version="1.0" encoding="utf-8"?>
<svg id="master-artboard" viewBox="0 0 1092.046142578125 250.76971435546875" xmlns="http://www.w3.org/2000/svg" width="1092.046142578125px" height="250.76971435546875px" version="1.1" style="shape-rendering:geometricPrecision; text-rendering:geometricPrecision; image-rendering:optimizeQuality; fill-rule:evenodd; clip-rule:evenodd"><defs><style id="ee-google-fonts">@import url(https://fonts.googleapis.com/css?family=Catamaran:100,200,300,400,500,600,700,800,900|Biryani:200,300,400,600,700,800,900|Fira+Mono:400,700|Julius+Sans+One:400|Lekton:400,400italic,700|Pontano+Sans:400|Anaheim:400|PT+Mono:400);</style></defs><rect id="ee-background" x="0" y="0" width="1092.046142578125" height="250.76971435546875" style="fill: white; fill-opacity: 0; pointer-events: none;"/>
 
 <metadata id="CorelCorpID_0Corel-Layer"/>
<path d="M 3.680000066757202 7.579999923706055 L 13.8100004196167 14.630000114440918 L 12.9399995803833 16.040000915527344 L 1.7100000381469727 8.100000381469727 L 1.7100000381469727 7.060000419616699 L 12.9399995803833 -0.6399993896484375 L 13.850000381469727 0.7199993133544922 L 3.680000066757202 7.579999923706055 ZM 103.01765441894531 7.579999923706055 L 92.83766174316406 0.7199993133544922 L 93.7276611328125 -0.6399993896484375 L 104.9976577758789 7.060000419616699 L 104.9976577758789 8.100000381469727 L 93.7276611328125 16.040000915527344 L 92.83766174316406 14.630000114440918 L 103.01765441894531 7.579999923706055 ZM 185.3185272216797 7.579999923706055 L 195.4485321044922 14.630000114440918 L 194.5785369873047 16.040000915527344 L 183.34854125976562 8.100000381469727 L 183.34854125976562 7.060000419616699 L 194.5785369873047 -0.6399993896484375 L 195.48854064941406 0.7199993133544922 L 185.3185272216797 7.579999923706055 ZM 210.3532257080078 -6.040000915527344 L 200.33322143554688 18.90999984741211 L 199.08322143554688 18.329999923706055 L 209.07322692871094 -6.659999847412109 L 210.3532257080078 -6.040000915527344 ZM 222.87863159179688 4.939999580383301 L 226.25863647460938 15.210000038146973 L 229.06863403320312 1.4300003051757812 L 231.04864501953125 1.4300003051757812 L 227.50863647460938 17 L 225.29864501953125 17 L 221.9386444091797 7.090000152587891 L 218.608642578125 17 L 216.358642578125 17 L 212.58863830566406 1.4300003051757812 L 214.5586395263672 1.4300003051757812 L 217.57864379882812 15.210000038146973 L 221.00863647460938 4.939999580383301 L 222.87863159179688 4.939999580383301 ZM 236.5743865966797 23.15999984741211 C 235.80105590820312 23.15999984741211 234.93438720703125 22.976665496826172 233.97438049316406 22.610000610351562 L 234.28439331054688 21 L 234.30438232421875 20.979999542236328 C 235.2510528564453 21.266666412353516 235.9610595703125 21.40999984741211 236.43438720703125 21.40999984741211 C 236.59439086914062 21.40999984741211 236.74105834960938 21.389999389648438 236.8743896484375 21.350000381469727 C 237.01438903808594 21.316665649414062 237.14105224609375 21.253334045410156 237.25437927246094 21.15999984741211 C 237.3743896484375 21.073333740234375 237.47772216796875 20.98666763305664 237.56439208984375 20.899999618530273 C 237.65771484375 20.81999969482422 237.7510528564453 20.69333267211914 237.84439086914062 20.520000457763672 C 237.93771362304688 20.35333251953125 238.01771545410156 20.213333129882812 238.08438110351562 20.100000381469727 C 238.14439392089844 19.979999542236328 238.21438598632812 19.80666732788086 238.2943878173828 19.579999923706055 C 238.3743896484375 19.35333251953125 238.43771362304688 19.176666259765625 238.48439025878906 19.049999237060547 C 238.5310516357422 18.93000030517578 238.59771728515625 18.733333587646484 238.68438720703125 18.459999084472656 C 238.76438903808594 18.19333267211914 238.8277130126953 17.996665954589844 238.8743896484375 17.8700008392334 L 239.2943878173828 16.59000015258789 L 232.89439392089844 1.4300003051757812 L 235.06439208984375 1.4300003051757812 L 240.18438720703125 14.380000114440918 L 244.3743896484375 1.4300003051757812 L 246.52438354492188 1.4300003051757812 L 241.05438232421875 17.25 C 240.7477264404297 18.136667251586914 240.4977264404297 18.829999923706055 240.30438232421875 19.329999923706055 C 240.10438537597656 19.829999923706055 239.8677215576172 20.363332748413086 239.59439086914062 20.93000030517578 C 239.31439208984375 21.489999771118164 239.04104614257812 21.90999984741211 238.77438354492188 22.190000534057617 C 238.51438903808594 22.469999313354492 238.19772338867188 22.703332901000977 237.8243865966797 22.889999389648438 C 237.4443817138672 23.06999969482422 237.02772521972656 23.15999984741211 236.5743865966797 23.15999984741211 ZM 251.5352325439453 4.010000228881836 L 251.5352325439453 17 L 249.50523376464844 17 L 249.50523376464844 1.4300003051757812 L 251.16522216796875 1.4300003051757812 L 251.3052215576172 2.439999580383301 C 252.33856201171875 1.9600000381469727 253.20523071289062 1.6333332061767578 253.9052276611328 1.4600000381469727 C 254.5985565185547 1.2799997329711914 255.34523010253906 1.1899995803833008 256.1452331542969 1.1899995803833008 C 257.7452392578125 1.1899995803833008 258.9285583496094 1.630000114440918 259.6952209472656 2.510000228881836 C 260.4618835449219 3.383333206176758 260.84521484375 4.720000267028809 260.84521484375 6.520000457763672 L 260.84521484375 17 L 258.8152160644531 17 L 258.8152160644531 6.439999580383301 C 258.8152160644531 5.15333366394043 258.6119079589844 4.233333587646484 258.2052307128906 3.6800003051757812 C 257.80523681640625 3.126667022705078 257.0819091796875 2.8500003814697266 256.03521728515625 2.8500003814697266 C 254.4352264404297 2.8500003814697266 252.9352264404297 3.236666679382324 251.5352325439453 4.010000228881836 ZM 275.09381103515625 7.579999923706055 L 264.9137878417969 0.7199993133544922 L 265.8038024902344 -0.6399993896484375 L 277.07379150390625 7.060000419616699 L 277.07379150390625 8.100000381469727 L 265.8038024902344 16.040000915527344 L 264.9137878417969 14.630000114440918 L 275.09381103515625 7.579999923706055 Z" transform="matrix(3.923356294631958, 0, 0, 3.923356294631958, 1.624739170074463, 113.58038330078125)" style="fill: rgb(160, 160, 160); white-space: pre; color: rgb(183, 183, 183); fill-opacity: 1;"/><path d="M 12.479999542236328 6.710000038146973 L 16.200000762939453 18.030000686645508 L 19.309999465942383 2.8400001525878906 L 21.479999542236328 2.8400001525878906 L 17.579999923706055 20 L 15.140000343322754 20 L 11.449999809265137 9.079999923706055 L 7.769999980926514 20 L 5.300000190734863 20 L 1.1299999952316284 2.8400001525878906 L 3.309999942779541 2.8400001525878906 L 6.639999866485596 18.030000686645508 L 10.420000076293945 6.710000038146973 L 12.479999542236328 6.710000038146973 ZM 27.583585739135742 26.799999237060547 C 26.723587036132812 26.799999237060547 25.763586044311523 26.59666633605957 24.70358657836914 26.190000534057617 L 25.053586959838867 24.40999984741211 L 25.073585510253906 24.389999389648438 C 26.11358642578125 24.703332901000977 26.89691925048828 24.860000610351562 27.423585891723633 24.860000610351562 C 27.596920013427734 24.860000610351562 27.76025390625 24.84000015258789 27.913585662841797 24.799999237060547 C 28.060253143310547 24.760000228881836 28.19692039489746 24.690000534057617 28.323585510253906 24.59000015258789 C 28.456920623779297 24.489999771118164 28.570253372192383 24.393333435058594 28.663585662841797 24.299999237060547 C 28.763586044311523 24.206666946411133 28.866920471191406 24.06999969482422 28.973587036132812 23.889999389648438 C 29.08025360107422 23.703332901000977 29.166919708251953 23.546667098999023 29.233585357666016 23.420000076293945 C 29.30691909790039 23.286666870117188 29.386920928955078 23.09666633605957 29.473587036132812 22.850000381469727 C 29.560253143310547 22.59666633605957 29.630252838134766 22.40333366394043 29.68358612060547 22.270000457763672 C 29.730253219604492 22.130001068115234 29.80025291442871 21.90999984741211 29.893587112426758 21.610000610351562 C 29.986919403076172 21.316667556762695 30.05691909790039 21.100000381469727 30.103586196899414 20.959999084472656 L 30.573585510253906 19.549999237060547 L 23.52358627319336 2.8400001525878906 L 25.903587341308594 2.8400001525878906 L 31.553585052490234 17.110000610351562 L 36.173587799072266 2.8400001525878906 L 38.54358673095703 2.8400001525878906 L 32.513587951660156 20.280000686645508 C 32.173587799072266 21.253334045410156 31.89691925048828 22.016666412353516 31.68358612060547 22.56999969482422 C 31.470252990722656 23.123332977294922 31.206920623779297 23.709999084472656 30.893585205078125 24.329999923706055 C 30.5869197845459 24.950000762939453 30.290252685546875 25.413333892822266 30.003585815429688 25.719999313354492 C 29.71025276184082 26.03333282470703 29.35692024230957 26.290000915527344 28.943586349487305 26.489999771118164 C 28.53025245666504 26.696666717529297 28.076919555664062 26.799999237060547 27.583585739135742 26.799999237060547 ZM 44.06083679199219 5.680000305175781 L 44.06083679199219 20 L 41.83083724975586 20 L 41.83083724975586 2.8400001525878906 L 43.66083908081055 2.8400001525878906 L 43.820838928222656 3.950000762939453 C 44.95417022705078 3.416666030883789 45.904170989990234 3.053333282470703 46.67083740234375 2.8600006103515625 C 47.43750762939453 2.6733341217041016 48.2641716003418 2.5799999237060547 49.150840759277344 2.5799999237060547 C 50.917503356933594 2.5799999237060547 52.22084045410156 3.059999465942383 53.06083679199219 4.020000457763672 C 53.900840759277344 4.986666679382324 54.320838928222656 6.4633331298828125 54.320838928222656 8.449999809265137 L 54.320838928222656 20 L 52.09083938598633 20 L 52.09083938598633 8.359999656677246 C 52.09083938598633 6.946666717529297 51.86750411987305 5.933333396911621 51.42083740234375 5.319999694824219 C 50.97417068481445 4.7133331298828125 50.17750549316406 4.409999847412109 49.03083801269531 4.409999847412109 C 47.2641716003418 4.409999847412109 45.607505798339844 4.8333330154418945 44.06083679199219 5.680000305175781 Z" transform="matrix(4.540389060974121, 0, 0, 4.540389060974121, 97.06547546386719, 93.02737426757812)" style="fill: rgb(0, 0, 0); white-space: pre; color: rgb(255, 255, 255);"/><path d="M 3.2799999713897705 -2.3899993896484375 C 4.0333333015441895 0.5633335113525391 5.046666622161865 4.300000190734863 6.320000171661377 8.819999694824219 C 7.586666584014893 13.34666633605957 8.40666675567627 16.296667098999023 8.779999732971191 17.670000076293945 C 9.106666564941406 16.43666648864746 9.90666675567627 13.530000686645508 11.180000305175781 8.949999809265137 C 12.453332901000977 4.376667022705078 13.473333358764648 0.5966663360595703 14.239999771118164 -2.3899993896484375 L 16.59000015258789 -2.3899993896484375 L 10.15999984741211 20 L 7.409999847412109 20 L 0.9800000190734863 -2.3899993896484375 L 3.2799999713897705 -2.3899993896484375 ZM 25.091249465942383 -0.6299991607666016 L 25.091249465942383 18.260000228881836 L 28.361248016357422 18.260000228881836 L 28.361248016357422 20 L 19.48124885559082 20 L 19.48124885559082 18.260000228881836 L 22.861248016357422 18.260000228881836 L 22.861248016357422 -0.6299991607666016 L 19.48124885559082 -0.6299991607666016 L 19.48124885559082 -2.3700008392333984 L 28.291248321533203 -2.3700008392333984 L 28.291248321533203 -0.6299991607666016 L 25.091249465942383 -0.6299991607666016 ZM 43.67920684814453 12.680000305175781 L 39.85920715332031 -0.45999908447265625 L 35.90920639038086 12.680000305175781 L 43.67920684814453 12.680000305175781 M 45.90920639038086 20 L 44.21920394897461 14.289999961853027 L 35.38920593261719 14.289999961853027 L 33.63920593261719 20 L 31.219205856323242 20 L 38.189205169677734 -2.3700008392333984 L 41.519203186035156 -2.3700008392333984 L 48.16920471191406 20 L 45.90920639038086 20 Z" transform="matrix(5.262727737426758, 0, 0, 5.262727737426758, 411.24151611328125, 82.3701171875)" style="fill: rgb(0, 0, 0); white-space: pre; color: rgb(255, 255, 255); fill-opacity: 1;"/><g transform="matrix(2.694793701171875, 0, 0, 2.694793701171875, -26.296005249023438, -384.9535140991211)"><g transform="matrix(1.0030952453613282, 0, 0, 1.0030952453613282, -0.10214309692383106, -0.448810577392591)">
	<path fill="#CCCCCC" d="M273,216.145c0,9.861-7.994,17.855-17.855,17.855H50.855C40.994,234,33,226.006,33,216.145v-53.29&#10;&#9;&#9;C33,152.994,40.994,145,50.855,145h204.29c9.861,0,17.855,7.994,17.855,17.855V216.145z M265,162.812&#10;&#9;&#9;c0-5.419-4.393-9.812-9.812-9.812H50.812c-5.419,0-9.812,4.393-9.812,9.812v53.375c0,5.419,4.393,9.812,9.812,9.812h204.375&#10;&#9;&#9;c5.419,0,9.812-4.393,9.812-9.812V162.812z" style="fill: rgb(0, 0, 0); fill-opacity: 1;"/>
</g></g></svg>